<svg width="137" height="30" viewBox="0 0 137 30" fill="none" xmlns="http://www.w3.org/2000/svg">
<g clip-path="url(#clip0)">
<path d="M28.8917 0.0312347C28.8831 0.0335785 28.8744 0.0356879 28.8658 0.038266C28.8637 0.0389105 28.8615 0.0393793 28.8594 0.0400238L0.618751 8.80413C0.25131 8.91821 0.000645777 9.25782 1.24586e-06 9.6426C-0.000643285 10.0274 0.248849 10.3678 0.615997 10.4831L11.5054 13.902L9.44848 19.4203C9.32824 19.7429 9.40729 20.1059 9.65068 20.3493C9.89449 20.5931 10.2577 20.6716 10.5797 20.5515L16.0979 18.4947L19.517 29.3841C19.6321 29.7507 19.9719 30.0001 20.3561 30.0001C20.3565 30.0001 20.3571 30.0001 20.3575 30.0001C20.7422 29.9994 21.0819 29.7488 21.1959 29.3813L29.9599 1.14053C29.9605 1.13836 29.961 1.13614 29.9617 1.13397C29.9642 1.12553 29.9663 1.11704 29.9686 1.1086C30.1463 0.45018 29.5407 -0.143843 28.8917 0.0312347ZM3.83063 9.64893L24.5867 3.20754L12.4839 12.3659L3.83063 9.64893ZM11.7686 18.2313L13.3877 13.8875L24.5871 5.41284L16.1123 16.6122L11.7686 18.2313ZM20.351 26.1693L17.634 17.5159L26.7923 5.41319L20.351 26.1693Z" fill="#0F1138"/>
<path d="M6.9873 18.0385C6.64394 17.6951 6.08713 17.6951 5.74365 18.0385L0.467341 23.3148C0.123923 23.6582 0.123923 24.215 0.467341 24.5585C0.810701 24.9019 1.36752 24.9019 1.71099 24.5585L6.9873 19.2822C7.33072 18.9387 7.33072 18.3819 6.9873 18.0385Z" fill="#1A75E8"/>
<path d="M11.9614 23.0125C11.6179 22.669 11.0611 22.669 10.7177 23.0125L5.4414 28.2888C5.09798 28.6322 5.09798 29.189 5.4414 29.5325C5.78476 29.8759 6.34164 29.8759 6.68505 29.5325L11.9614 24.2562C12.3048 23.9128 12.3048 23.356 11.9614 23.0125Z" fill="#1A75E8"/>
<path d="M7.71555 22.2843C7.37219 21.9409 6.81538 21.9409 6.4719 22.2843L0.257563 28.4986C-0.0858545 28.8421 -0.0858545 29.3988 0.257563 29.7423C0.600923 30.0857 1.1578 30.0857 1.50122 29.7423L7.71555 23.5279C8.05897 23.1845 8.05897 22.6277 7.71555 22.2843Z" fill="#1A75E8"/>
</g>
<path d="M52.8594 16.3516H48.3594V21H46.0156V9.625H53.4219V11.5234H48.3594V14.4609H52.8594V16.3516Z" fill="#0F1138"/>
<path d="M57.0156 21H54.75V12.5469H57.0156V21ZM54.6172 10.3594C54.6172 10.0208 54.7292 9.74219 54.9531 9.52344C55.1823 9.30469 55.4922 9.19531 55.8828 9.19531C56.2682 9.19531 56.5755 9.30469 56.8047 9.52344C57.0339 9.74219 57.1484 10.0208 57.1484 10.3594C57.1484 10.7031 57.0312 10.9844 56.7969 11.2031C56.5677 11.4219 56.263 11.5312 55.8828 11.5312C55.5026 11.5312 55.1953 11.4219 54.9609 11.2031C54.7318 10.9844 54.6172 10.7031 54.6172 10.3594Z" fill="#0F1138"/>
<path d="M60.9609 12.5469L61.0312 13.5234C61.6354 12.7682 62.4453 12.3906 63.4609 12.3906C64.3568 12.3906 65.0234 12.6536 65.4609 13.1797C65.8984 13.7057 66.1224 14.4922 66.1328 15.5391V21H63.875V15.5938C63.875 15.1146 63.7708 14.7682 63.5625 14.5547C63.3542 14.3359 63.0078 14.2266 62.5234 14.2266C61.888 14.2266 61.4115 14.4974 61.0938 15.0391V21H58.8359V12.5469H60.9609Z" fill="#0F1138"/>
<path d="M67.5 16.7109C67.5 15.3932 67.7943 14.3438 68.3828 13.5625C68.9766 12.7812 69.7865 12.3906 70.8125 12.3906C71.6354 12.3906 72.3151 12.6979 72.8516 13.3125V9H75.1172V21H73.0781L72.9688 20.1016C72.4062 20.8047 71.6823 21.1562 70.7969 21.1562C69.8021 21.1562 69.0026 20.7656 68.3984 19.9844C67.7995 19.1979 67.5 18.1068 67.5 16.7109ZM69.7578 16.875C69.7578 17.6667 69.8958 18.2734 70.1719 18.6953C70.4479 19.1172 70.849 19.3281 71.375 19.3281C72.0729 19.3281 72.5651 19.0339 72.8516 18.4453V15.1094C72.5703 14.5208 72.0833 14.2266 71.3906 14.2266C70.3021 14.2266 69.7578 15.1094 69.7578 16.875Z" fill="#0F1138"/>
<path d="M80.9375 14.75L83.3047 9.625H85.8672L82.1328 16.875V21H79.75V16.875L76.0156 9.625H78.5859L80.9375 14.75Z" fill="#0F1138"/>
<path d="M85.8906 16.6953C85.8906 15.8568 86.0521 15.1094 86.375 14.4531C86.6979 13.7969 87.1615 13.2891 87.7656 12.9297C88.375 12.5703 89.0807 12.3906 89.8828 12.3906C91.0234 12.3906 91.9531 12.7396 92.6719 13.4375C93.3958 14.1354 93.7995 15.0833 93.8828 16.2812L93.8984 16.8594C93.8984 18.1562 93.5365 19.1979 92.8125 19.9844C92.0885 20.7656 91.1172 21.1562 89.8984 21.1562C88.6797 21.1562 87.7057 20.7656 86.9766 19.9844C86.2526 19.2031 85.8906 18.1406 85.8906 16.7969V16.6953ZM88.1484 16.8594C88.1484 17.6615 88.2995 18.276 88.6016 18.7031C88.9036 19.125 89.3359 19.3359 89.8984 19.3359C90.4453 19.3359 90.8724 19.1276 91.1797 18.7109C91.487 18.2891 91.6406 17.6172 91.6406 16.6953C91.6406 15.9089 91.487 15.2995 91.1797 14.8672C90.8724 14.4349 90.4401 14.2188 89.8828 14.2188C89.3307 14.2188 88.9036 14.4349 88.6016 14.8672C88.2995 15.2943 88.1484 15.9583 88.1484 16.8594Z" fill="#0F1138"/>
<path d="M100.352 20.1406C99.7943 20.8177 99.0234 21.1562 98.0391 21.1562C97.1328 21.1562 96.4401 20.8958 95.9609 20.375C95.487 19.8542 95.2448 19.0911 95.2344 18.0859V12.5469H97.4922V18.0078C97.4922 18.888 97.8932 19.3281 98.6953 19.3281C99.4609 19.3281 99.987 19.0625 100.273 18.5312V12.5469H102.539V21H100.414L100.352 20.1406Z" fill="#0F1138"/>
<path d="M108.992 14.6641C108.685 14.6224 108.414 14.6016 108.18 14.6016C107.326 14.6016 106.766 14.8906 106.5 15.4688V21H104.242V12.5469H106.375L106.438 13.5547C106.891 12.7786 107.518 12.3906 108.32 12.3906C108.57 12.3906 108.805 12.4245 109.023 12.4922L108.992 14.6641Z" fill="#0F1138"/>
<path d="M115.602 9.625H117.945V17.5C117.945 18.224 117.784 18.8646 117.461 19.4219C117.143 19.974 116.693 20.401 116.109 20.7031C115.526 21.0052 114.867 21.1562 114.133 21.1562C112.93 21.1562 111.992 20.8516 111.32 20.2422C110.648 19.6276 110.312 18.7604 110.312 17.6406H112.672C112.672 18.1979 112.789 18.6094 113.023 18.875C113.258 19.1406 113.628 19.2734 114.133 19.2734C114.581 19.2734 114.938 19.1198 115.203 18.8125C115.469 18.5052 115.602 18.0677 115.602 17.5V9.625Z" fill="#1A75E8"/>
<path d="M119.453 16.6953C119.453 15.8568 119.615 15.1094 119.938 14.4531C120.26 13.7969 120.724 13.2891 121.328 12.9297C121.938 12.5703 122.643 12.3906 123.445 12.3906C124.586 12.3906 125.516 12.7396 126.234 13.4375C126.958 14.1354 127.362 15.0833 127.445 16.2812L127.461 16.8594C127.461 18.1562 127.099 19.1979 126.375 19.9844C125.651 20.7656 124.68 21.1562 123.461 21.1562C122.242 21.1562 121.268 20.7656 120.539 19.9844C119.815 19.2031 119.453 18.1406 119.453 16.7969V16.6953ZM121.711 16.8594C121.711 17.6615 121.862 18.276 122.164 18.7031C122.466 19.125 122.898 19.3359 123.461 19.3359C124.008 19.3359 124.435 19.1276 124.742 18.7109C125.049 18.2891 125.203 17.6172 125.203 16.6953C125.203 15.9089 125.049 15.2995 124.742 14.8672C124.435 14.4349 124.003 14.2188 123.445 14.2188C122.893 14.2188 122.466 14.4349 122.164 14.8672C121.862 15.2943 121.711 15.9583 121.711 16.8594Z" fill="#1A75E8"/>
<path d="M136.469 16.8516C136.469 18.2057 136.18 19.263 135.602 20.0234C135.023 20.7786 134.216 21.1562 133.18 21.1562C132.263 21.1562 131.531 20.8047 130.984 20.1016L130.883 21H128.852V9H131.109V13.3047C131.63 12.6953 132.315 12.3906 133.164 12.3906C134.195 12.3906 135.003 12.7708 135.586 13.5312C136.174 14.2865 136.469 15.3516 136.469 16.7266V16.8516ZM134.211 16.6875C134.211 15.8333 134.076 15.2109 133.805 14.8203C133.534 14.4245 133.13 14.2266 132.594 14.2266C131.875 14.2266 131.38 14.5208 131.109 15.1094V18.4453C131.385 19.0391 131.885 19.3359 132.609 19.3359C133.339 19.3359 133.818 18.9766 134.047 18.2578C134.156 17.9141 134.211 17.3906 134.211 16.6875Z" fill="#1A75E8"/>
<defs>
<clipPath id="clip0">
<rect width="30" height="30" fill="white"/>
</clipPath>
</defs>
</svg>
